<?xml version="1.0" encoding="utf-8"?>
<!-- Generator: Adobe Illustrator 24.2.0, SVG Export Plug-In . SVG Version: 6.00 Build 0)  -->
<svg version="1.1" id="Layer_1" xmlns="http://www.w3.org/2000/svg" xmlns:xlink="http://www.w3.org/1999/xlink" x="0px" y="0px"
	 viewBox="0 0 16 16" style="enable-background:new 0 0 16 16;" xml:space="preserve">
<style type="text/css">
	.st0{fill:#FFFFFF;}
</style>
<g>
	<path class="st0" d="M15.8,9.2c-0.1,0.2-0.2,0.2-0.3,0.2c-2.4,1.4-4.8,2.8-7.2,4.1c-0.2,0.1-0.4,0.2-0.6,0
		c-2.4-1.4-4.9-2.8-7.4-4.2c-0.1,0-0.1-0.1-0.2-0.1c0.6-0.3,1.1-0.6,1.6-0.9C1.9,8.2,2,8.4,2.1,8.4c1.9,1.1,3.7,2.1,5.6,3.2
		c0.2,0.1,0.4,0.2,0.7,0c1.9-1.1,3.7-2.1,5.6-3.2c0.2-0.1,0.3-0.1,0.5,0C15,8.7,15.4,8.9,15.8,9.2z"/>
	<path class="st0" d="M3.8,3.7C4.9,3.1,6,2.5,7,1.9C7.3,1.7,7.7,1.3,8,1.3c0.3,0,0.7,0.3,1.1,0.6c1,0.6,1.9,1.1,2.9,1.7
		c0.1,0.1,0.2,0.1,0.3,0.2c-0.9,0.5-1.9,1.1-2.8,1.6c-0.2,0.1-0.2,0-0.3-0.1c-0.3-0.2-0.7-0.4-1-0.6C8.2,4.6,8,4.6,7.9,4.8
		C7.5,5,7.2,5.2,6.8,5.4c-0.1,0.1-0.2,0.1-0.3,0C5.6,4.8,4.8,4.3,3.8,3.7z"/>
	<path class="st0" d="M7.4,10.1C4.9,8.7,2.6,7.3,0.1,5.9C0.9,5.4,1.6,5,2.3,4.5c0.1-0.1,0.2,0,0.3,0.1C4,5.4,5.4,6.3,6.8,7
		c0.6,0.3,0.7,0.7,0.6,1.2C7.4,8.8,7.4,9.4,7.4,10.1z"/>
	<path class="st0" d="M8.7,10c0-0.9,0-1.7,0-2.5c0-0.1,0.1-0.2,0.2-0.2c1.5-0.9,3.1-1.8,4.6-2.7c0.1-0.1,0.2-0.1,0.3-0.1
		c0.7,0.5,1.4,0.9,2.2,1.4C13.5,7.2,11.1,8.7,8.7,10z"/>
</g>
</svg>
