<?xml version="1.0" encoding="utf-8"?>
<!-- Generator: Adobe Illustrator 24.2.0, SVG Export Plug-In . SVG Version: 6.00 Build 0)  -->
<svg version="1.1" id="Layer_1" xmlns="http://www.w3.org/2000/svg" xmlns:xlink="http://www.w3.org/1999/xlink" x="0px" y="0px"
	 viewBox="0 0 595.3 139" style="enable-background:new 0 0 595.3 139;" xml:space="preserve">
<style type="text/css">
	.st0{fill:#FFFFFF;}
</style>
<g>
	<path class="st0" d="M154.5,84.6c-0.6,1.3-1.7,1.6-2.6,2.1c-22.3,12.7-44.6,25.4-66.8,38.2c-2.2,1.3-3.8,1.4-6,0.1
		c-22.7-13.2-45.5-26.3-68.3-39.4c-0.3-0.1-0.4-0.4-0.9-0.9c4.9-2.7,9.6-5.3,14.3-7.9c1.4-0.8,2.4,0.3,3.5,0.9
		c17.3,9.9,34.6,19.8,51.8,29.9c2.2,1.3,3.8,1.3,6,0c17.3-10.1,34.6-20,51.9-30c1.8-1,3.1-1.1,4.9,0C146.3,80,150.4,82.2,154.5,84.6
		z"/>
	<path class="st0" d="M43.1,34.5C54.4,27.8,65.4,21.8,75.9,15c4.9-3.2,8.4-3.2,13.3,0c9.8,6.3,20.1,11.8,30.2,17.7
		c0.9,0.5,2,0.8,2.7,2.1c-8.5,4.9-17,9.7-25.5,14.7c-1.3,0.8-2.2,0.2-3.2-0.4c-3-1.8-6.1-3.5-9.1-5.4c-1.3-0.8-2.2-0.8-3.5,0
		c-3.2,1.9-6.5,3.7-9.8,5.6c-1.1,0.6-2,1-3.2,0.2C59.8,44.4,51.7,39.6,43.1,34.5z"/>
	<path class="st0" d="M76.7,92.9C53.8,79.9,31.6,67.1,8.9,54.2c7.1-4.4,13.7-8.5,20.3-12.6c1.2-0.7,2-0.2,2.9,0.4
		c12.8,7.6,25.4,15.6,38.6,22.6c5.3,2.8,6.3,6.1,6,11.2C76.4,81.2,76.7,86.7,76.7,92.9z"/>
	<path class="st0" d="M87.8,92.9c0-8.1,0-15.7,0-23.2c0-1.4,0.7-2,1.8-2.7c14.2-8.3,28.4-16.6,42.6-25c1-0.6,1.9-1.2,3.2-0.4
		c6.5,4.1,13,8.2,20.1,12.6C133,67.1,110.7,79.8,87.8,92.9z"/>
	<path class="st0" d="M202,62.5c-1.7,0.2-3.5,0.3-4.7-2.7c-1.2-3.1-7.7-3.3-9.9-0.7c-1.6,1.9-1.1,3.7,0.9,4.8
		c1.5,0.8,3.2,1.3,4.8,1.7c2.7,0.7,5.4,1.3,7.9,2.4c4.3,1.9,6.8,5,7,9.8c0.1,5-1.6,9.1-6.2,11.4c-5.9,2.9-12,3-17.9,0
		c-3.7-1.9-5.9-5.1-6.4-9.4c-0.1-0.6-0.2-1.7,0.1-1.8c2.2-1,4.6-0.2,6.9-0.5c1.4-0.2,1.4,0.8,1.8,1.7c1.8,4.4,8.5,5.7,11.8,2.2
		c2.2-2.3,1.4-5.3-2-6.5c-3.4-1.2-7-1.9-10.4-3c-5.9-2-8.4-6.2-7.6-12.4c0.5-4.2,2.8-7.1,6.7-8.7c4.7-2,9.6-2.1,14.4-0.4
		c4.2,1.5,6.7,4.6,7.6,9.1c0.4,2.2,0,3.2-2.4,2.8C203.7,62.5,203.1,62.5,202,62.5z"/>
	<path class="st0" d="M262.2,88.2c-7.4,4.4-14.8,4.2-20.4-0.5c-5.3-4.5-7.1-12-4.6-18.9c3.4-9.3,14.5-13.1,23-8.1
		c1.2,0.7,2,2.2,3.1-0.5c0.8-1.9,3.6-0.8,5.5-0.7c1.5,0,0.7,1.5,0.7,2.3c0.1,8.3,0.1,16.6,0,24.9c0,1.3,1.3,3.7-1.1,3.9
		C266.3,90.7,263,92.4,262.2,88.2z M261.4,75c0-5-3.4-8.6-8.3-8.6c-4.8,0-8.5,3.6-8.5,8.4c-0.1,4.8,3.6,8.5,8.4,8.6
		C257.9,83.4,261.4,80,261.4,75z"/>
	<path class="st0" d="M323.9,72.3c2.3-3.4,4.7-6.8,6.8-10.3c1.3-2.2,2.8-2.9,5.2-2.7c1.9,0.2,3.8,0,6.3,0c-3.2,4.7-6.1,9-9.1,13.2
		c-1.1,1.5-1,2.4,0.1,3.9c3.4,4.6,6.6,9.3,10.2,14.3c-3.3,0-6-0.1-8.8,0c-1.5,0.1-2-1-2.6-2c-2.6-3.9-5.3-7.9-8.7-11.6
		c0,3.8-0.1,7.5,0,11.2c0.1,1.8-0.4,2.3-2.3,2.3c-6.1,0-6.1,0.1-6.1-5.8c0-11.3,0.1-22.6,0-33.9c0-2.1,0.5-2.7,2.7-2.7
		c5.8,0.1,5.8,0,5.8,5.9c0,6,0,11.9,0,17.9C323.4,72.2,323.7,72.2,323.9,72.3z"/>
	<path class="st0" d="M303.2,71.1c-1.8,0.4-3.3-0.3-4.9-2.2c-2.9-3.5-8.2-3.4-11.4-0.2c-3.4,3.5-3.1,9.7,0.6,12.9
		c3.4,2.9,8.4,2.3,11.3-1.5c1.1-1.4,7.7-2.8,9-1.8c0.9,0.7,0.1,1.6-0.1,2.3c-2,6.3-8,10.6-14.8,10.7c-7.3,0.1-13.4-4.1-15.8-10.7
		c-3-8.3,0.7-17.2,8.5-20.7c7.8-3.5,17-0.7,20.9,6.4C309,70.9,308.8,71.1,303.2,71.1z"/>
	<path class="st0" d="M216.3,74.1c0-1.2-0.1-2.4,0-3.5c0.4-3-0.1-5-3.9-4.2c-0.5,0.1-1.4,0.3-1.7-0.5c-0.3-0.7-0.1-1.5,0.5-2.1
		c3.6-3.9,7.3-7.8,10.9-11.7c0.5-0.5,1-0.9,1.7-0.7c0.9,0.2,0.6,1,0.6,1.6c0.3,2.1-1,4.8,0.6,6c1.3,1,3.9,0.3,5.9,0.3
		c1.5-0.1,2.2,0.3,2,1.9c-0.1,1.1-0.1,2.1,0,3.2c0.1,1.5-0.3,2.1-1.9,2c-2.1,0-5.1-1-6.1,0.4c-1.1,1.5-0.3,4.3-0.4,6.5
		c0,0.9,0,1.7,0,2.6c0,6.2,0.5,6.8,6.6,7c1.5,0.1,2,0.4,2,2c0.2,5.8,0.3,5.8-5.3,5.8c-7.7,0-11.7-3.8-11.7-11.5
		C216.3,77.5,216.3,75.8,216.3,74.1z"/>
	<path class="st0" d="M351.7,86.2c-0.1,0.6-0.2,1.1-0.3,1.6c-0.3,1.3,0.5,3.3-2.1,2.9c-2.4-0.3-1.1-2.2-1.2-3.2
		c-0.1-5.9-0.1-11.7-0.1-17.6c0-6.2,0-12.4,0-18.5c0-1.3-0.1-2.4,1.9-2.4c1.9,0,2,0.8,2,2.3c-0.1,4.2,0,8.5,0,13.3
		c4.4-4.1,9.2-5.9,14.8-5.1c4,0.6,7.3,2.3,9.9,5.4c4.9,5.9,4.7,15.6-0.4,21.3C370.2,92.9,361.8,93,351.7,86.2z M364.1,87.5
		c7,0,12-5.1,12-12.2c0-7.2-5.1-12.2-12.4-12.1c-7,0-12,5.1-12,12.2C351.7,82.5,356.9,87.5,364.1,87.5z"/>
	<path class="st0" d="M465.1,64.9c0.1-1.3,0.2-2.3,0.2-3.2c0-1.4,0.6-1.8,2-1.8c1.5,0,1.4,0.9,1.4,1.9c0,9.1,0,18.1,0,27.2
		c0,1.1-0.1,1.8-1.5,1.8c-1.3,0-2-0.3-1.9-1.8c0.1-0.9-0.1-1.9-0.2-3.4c-4.5,4.4-9.4,6.5-15.3,5.6c-4.1-0.6-7.5-2.5-10.1-5.7
		c-5-6.4-4.4-16,1.3-21.6C447.3,57.5,455.9,57.8,465.1,64.9z M452.6,87.5c7.1,0,12-4.9,12-12.1c0-7.3-4.9-12.2-12.2-12.2
		c-7,0-12.1,5.1-12.1,12.1C440.2,82.4,445.4,87.5,452.6,87.5z"/>
	<path class="st0" d="M570.4,91.3c-9.4,0-16.3-6.8-16.3-16c0-9.2,6.9-16,16.3-16c9.4,0,16.3,6.8,16.3,16
		C586.7,84.5,579.7,91.3,570.4,91.3z M570.2,87.5c7.4,0,12.6-5.1,12.5-12.4c-0.1-6.9-5.2-11.9-12.3-11.9c-7.2,0-12.4,5.1-12.4,12.2
		C558,82.4,563.1,87.5,570.2,87.5z"/>
	<path class="st0" d="M496.6,60.3c2.9-0.9,4.4-0.1,5.6,2.6c3.2,7.1,6.7,14,10.3,21.5c3.3-7.3,6.6-14.1,9.5-21c1.1-2.7,2.4-4.1,5.7-3
		c-5.5,11.6-10.8,23.3-16.4,34.9c-2.2,4.6-6,6.7-11.2,6.5c-1.6-0.1-1.9-0.6-1.9-2.1c0-1.4,0.4-1.8,1.8-1.9c5.4-0.3,8.7-3.2,10.2-8.4
		c0.3-1.1-0.3-1.9-0.7-2.7C505.2,77.9,501,69.1,496.6,60.3z"/>
	<path class="st0" d="M405,65.5c2.9-3.8,6.1-5.7,9.9-6.2c7.5-1,13.3,4.3,13.5,12.3c0.2,5.6,0,11.3,0.1,16.9c0,1.6-0.4,2.2-2.1,2.2
		c-1.7,0-1.8-0.8-1.8-2.1c0.1-4.9,0.1-9.8,0-14.7c-0.1-7.2-3.1-10.8-8.9-10.8c-6.1,0-10.2,4.4-10.3,11c-0.1,4.7,0,9.4,0,14.1
		c0,1.4,0.2,2.6-2,2.6c-2.4,0-1.9-1.4-1.9-2.7c0-8.5,0-17,0-25.6c0-0.9-0.9-2.5,1.2-2.6c2.1-0.1,1.7,1.4,1.9,2.6
		C404.8,63.2,404.8,63.9,405,65.5z"/>
	<path class="st0" d="M482.2,65.4c3.1-4.1,6.8-5.6,11.2-5.5c1.5,0.1,1.8,0.7,1.7,1.9c0,1.2,0,1.9-1.6,2c-8.7,0.7-10.9,3.2-10.9,12.1
		c0,4.3-0.1,8.5,0,12.8c0,1.5-0.4,2-1.9,2c-1.5,0-2-0.4-2-1.9c0.1-9,0-17.9,0.1-26.9c0-0.8-0.6-2,1.1-2c1.5-0.1,1.8,0.8,1.9,1.9
		C481.9,62.8,482,63.7,482.2,65.4z"/>
	<path class="st0" d="M388,75c0-4.4,0-8.7,0-13.1c0-1.4,0.2-2.1,1.9-2.1c1.8,0,2.1,0.6,2.1,2.2c-0.1,8.8-0.1,17.6,0,26.5
		c0,1.5-0.2,2.2-2,2.2c-2.1,0-1.9-1-1.9-2.4C388,84,388,79.5,388,75z"/>
	<path class="st0" d="M542.4,75c0-4.3,0-8.5,0-12.8c0-1.3-0.2-2.4,1.9-2.4c1.8,0,2.1,0.7,2,2.2c-0.1,8.8-0.1,17.6,0,26.5
		c0,1.5-0.3,2.2-2,2.2c-2,0-1.9-1-1.9-2.4C542.5,83.9,542.4,79.5,542.4,75z"/>
	<path class="st0" d="M533.6,88.2c0.5,2.2-0.5,2.5-2.5,2.6c-2.3,0.1-2.2-1.1-2.2-2.7c0-1.6,0-2.7,2.2-2.6
		C533.2,85.6,534.1,86,533.6,88.2z"/>
	<path class="st0" d="M392,51.8c0.5,2-0.4,2.4-2.1,2.4c-1.8,0-2.3-0.5-2.3-2.3c0-1.8,0.5-2.4,2.3-2.3
		C391.6,49.7,392.7,49.9,392,51.8z"/>
	<path class="st0" d="M546.5,52c0.5,1.9-0.4,2.3-2.2,2.3c-1.8,0-2.3-0.5-2.3-2.3c0-1.8,0.5-2.3,2.3-2.3
		C546.1,49.7,547,50.1,546.5,52z"/>
</g>
</svg>
